<?xml version="1.0" encoding="UTF-8"?><svg id="_Слой_1" xmlns="http://www.w3.org/2000/svg" viewBox="100 205 640 185"><defs><style>.cls-1{fill:#e0e4ec;}.cls-1,.cls-2,.cls-3{stroke-width:0px;}.cls-2{fill:#fff;}.cls-3{fill:#f15a22;}</style></defs><path class="cls-3" d="m529.11,271.13h12.32v-2.46h-12.32v2.46Zm17.24-2.46v2.46h12.32v-2.46h-12.32Zm-3.69,16.01h2.46v-12.32h-2.46v12.32Zm0-17.24h2.46v-12.32h-2.46v12.32Z"/><path class="cls-3" d="m231.96,260.76c8.16-8.69,8.06-15.95,7.09-19.83-.41-1.63-2.25-2.41-3.7-1.57l-3.45,1.53s4.31-14.67.72-22.72c-1.26-2.82-.56-6.2-5.37-6.88-3.35-.47-5.63.95-12.42,7.33-2.43,2.28-20.5,18.68-20.5,18.68,0,0-1.85-4.97-5.93-5.65-10.57-1.75-31.19,19.84-44.26,37.82-15.63,21.5-31.03,35.59-31.03,35.59,0,0,5.02,6.03,14.22,5.23-25.49,29.68-21.2,73.78-21.2,73.78,0,0,7.3-9.36,17.11-16.25,9.84-6.92,17.74-8.9,17.74-8.9l-9.99,17.27s21.15,3.25,40.46-4.81c11.36-4.74,17.55-11.42,22.17-16.94l-.14,10.97s14.74-2.98,22.09-17.36l1.21,8.18s14.11-13.47,14.11-32.02c0-23.55-11.5-27.84-11.79-41.14-.24-11,7.82-16.96,12.85-22.32Zm-108.87,42.36s4.15-1.28,12.59-6.94c7.29-4.89,12.25-10.11,12.25-10.11,0,0-1.25,3.8-3.27,6.64-2.33,3.26-5.09,5.11-5.09,5.11l6.62-.83s-4.42,4-12.48,5.98c-5.95,1.46-10.61.16-10.61.16Zm17.46,45.6s6.1-2.24,8.7-5.72c2.96-3.96,1.78-6.87,1.78-6.87,0,0-3.75,6.57-17.57,10.94-12.31,3.89-16.32,12.99-16.32,12.99,0,0-.37-15.93,13.15-32.81,14.02-17.51,31.94-17.61,31.94-17.61,0,0-7.22,4.12-13.74,10.19-7.67,7.13-8.8,12.46-8.8,12.46,0,0,4.04-4.4,9.81-6.59,7.47-2.84,13.75-1.66,13.75-1.66,0,0,.96,8.31-3.55,15.49-6.03,9.61-19.15,9.2-19.15,9.2Zm28.22,14.06c-9.47,5.58-24.22,4.59-24.22,4.59,0,0,10.54-6.7,16.34-12.47,9.07-9.02,9.98-16.74,9.98-16.74,0,0,1.11,3.05.18,8.02-.76,4.06-2.84,6.39-2.84,6.39,0,0,5.15-1.22,9.34-7.58,4.31-6.55,5.31-15.44,5.31-15.44,0,0,8.41,19.99-14.08,33.24Zm57.04-103.2c-11.17,9.88-13.6,16.58-13.6,23.51,0,12.36,10.56,20.84,10.56,32.74,0,6.15-3.06,11.07-3.06,11.07,0,0-.62-5.11-2.29-8.69-1.81-3.88-4.36-5.52-4.36-5.52,0,0,2.44,7.38-2.46,15.44-7.26,11.95-20.7,11.84-20.7,11.84,0,0,10.87-12.36.74-30.82-11.05-20.14.74-29.83.74-29.83,0,0-8.65-.25-17.8,3.96-6.01,2.76-14.08,9.01-14.08,9.01,0,0,.54-7.24,6.51-15.9,9.62-13.96,23.48-16.37,23.48-16.37,0,0-8.28-.49-16.77,3.67-5.33,2.62-13.45,9.81-13.45,9.81,0,0,5.77-15.29,13.26-23.86,8.53-9.75,15.61-11.65,15.61-11.65l2.62,5.99c-4.35,1.92-8.41,6.42-10.49,10.76,4.41-3.33,9.74-2.98,12.62-5.59,1.96-1.96,1.7-3.73,3.59-5.76,2.4-2.59,4.8-5.17,7.38-7.6,6.07-5.72,12.26-11.33,18.37-17l-1.25,4.89,7.08-4.3s1.85,7.68-1.17,17.7c-3.13,10.38-8.31,17.03-8.31,17.03l15.53-9.04s.1,7.05-8.34,14.51Z"/><path class="cls-2" d="m218.61,254.11s5.18-6.65,8.31-17.03c3.02-10.02,1.17-17.7,1.17-17.7l-7.08,4.3,1.25-4.89c-6.12,5.67-12.3,11.28-18.37,17-2.58,2.43-4.98,5.02-7.38,7.6-1.88,2.03-1.63,3.8-3.59,5.76-2.88,2.61-8.21,2.25-12.62,5.59,2.08-4.35,6.14-8.85,10.49-10.76l-2.62-5.99s-7.08,1.9-15.61,11.65c-7.5,8.57-13.26,23.86-13.26,23.86,0,0,8.12-7.19,13.45-9.81,8.48-4.17,16.77-3.67,16.77-3.67,0,0-13.86,2.41-23.48,16.38-5.97,8.67-6.51,15.9-6.51,15.9,0,0,8.07-6.24,14.08-9.01,9.14-4.21,17.8-3.96,17.8-3.96,0,0-11.79,9.69-.74,29.83,10.13,18.46-.74,30.82-.74,30.82,0,0,13.44.12,20.7-11.84,4.9-8.06,2.46-15.44,2.46-15.44,0,0,2.55,1.64,4.36,5.52,1.67,3.58,2.29,8.69,2.29,8.69,0,0,3.06-4.92,3.06-11.07,0-11.9-10.56-20.38-10.56-32.74,0-6.93,2.43-13.63,13.6-23.51,8.43-7.46,8.34-14.51,8.34-14.51l-15.53,9.04Zm-84.91,48.85c8.06-1.98,12.48-5.98,12.48-5.98l-6.62.83s2.77-1.85,5.09-5.11c2.02-2.84,3.27-6.64,3.27-6.64,0,0-4.96,5.22-12.25,10.11-8.44,5.66-12.59,6.94-12.59,6.94,0,0,4.66,1.31,10.61-.16Zm43.84,42.02c-4.18,6.36-9.34,7.58-9.34,7.58,0,0,2.08-2.33,2.84-6.39.93-4.97-.18-8.02-.18-8.02,0,0-.91,7.72-9.98,16.74-5.8,5.77-16.34,12.47-16.34,12.47,0,0,14.75.99,24.22-4.59,22.5-13.25,14.08-33.24,14.08-33.24,0,0-1,8.89-5.31,15.44Zm-17.85-5.46c4.51-7.18,3.55-15.49,3.55-15.49,0,0-6.28-1.18-13.75,1.66-5.77,2.19-9.81,6.59-9.81,6.59,0,0,1.13-5.33,8.8-12.46,6.53-6.07,13.74-10.19,13.74-10.19,0,0-17.92.1-31.94,17.61-13.51,16.88-13.15,32.81-13.15,32.81,0,0,4.01-9.1,16.32-12.99,13.82-4.37,17.57-10.94,17.57-10.94,0,0,1.18,2.92-1.78,6.87-2.6,3.48-8.7,5.72-8.7,5.72,0,0,13.12.41,19.15-9.2Z"/><path class="cls-1" d="m515.75,257.01c-.4-1.13-1.47-1.89-2.67-1.89h-35.58c-1.2,0-2.27.76-2.67,1.89l-22.67,64.31c-.08.23-.4.23-.49,0-3.49-9.3-9.46-17.39-17.13-23.44-.16-.13-.16-.36,0-.49,11.77-9.3,19.59-23.38,20.47-39.29.09-1.62-1.22-2.98-2.84-2.98h-17.33c-1.49,0-2.7,1.16-2.82,2.65-1.28,15.42-13.62,27.68-29.16,28.49-.82.04-1.52-.59-1.52-1.41l-.09-26.9c0-1.56-1.27-2.83-2.83-2.83h-18.43c-1.57,0-2.83,1.27-2.83,2.83v79.37c0,1.57,1.27,2.83,2.83,2.83h18.7c1.57,0,2.84-1.27,2.83-2.84l-.09-26.87c0-.84.68-1.47,1.52-1.42,15.52.85,28.05,13.09,29.35,28.49.13,1.49,1.33,2.64,2.82,2.64h34.18c1.21,0,2.28-.76,2.68-1.9l21.97-62.94c.44-1.27,2.23-1.27,2.68,0l12.88,36.88c.64,1.83-.71,3.75-2.65,3.77l-14.42.07c-1.56.01-2.81,1.28-2.81,2.83v18.45c0,1.57,1.27,2.83,2.83,2.83h44.59c3.91,0,6.65-3.87,5.35-7.55l-26.64-75.59Zm-211.47-1.89h-27.78c-1.57,0-2.83,1.27-2.83,2.83v14.3c0,3.62-2.94,6.56-6.56,6.56h-14.7c-1.57,0-2.83,1.27-2.83,2.83v55.67c0,1.57,1.27,2.83,2.83,2.83h18.71c1.57,0,2.83-1.27,2.83-2.83v-51.83c0-3.62,2.94-6.56,6.56-6.56h24.14c3.74,0,7.02,2.88,7.12,6.62.1,3.84-2.98,6.98-6.8,6.98h-16.2c-1.57,0-2.83,1.27-2.83,2.83v18.26c0,1.39,1.12,2.7,2.51,2.84,11.47,1.14,20.06,10.02,21.18,21.2.14,1.37,1.43,2.49,2.81,2.49h18.19c1.55,0,2.83-1.25,2.84-2.79.07-15.83-8.68-25.36-10.35-27.03-.14-.14-.12-.38.04-.5,7.15-5.6,11.75-14.32,11.75-24.1h0c0-16.91-13.71-30.61-30.61-30.61Zm59.4,0h-18.43c-1.57,0-2.83,1.27-2.83,2.83v79.37c0,1.57,1.27,2.83,2.83,2.83h18.7c1.57,0,2.84-1.27,2.83-2.84l-.26-79.37c0-1.56-1.27-2.83-2.83-2.83Zm369.51,0h-19.77c-1.21,0-2.28.76-2.68,1.9l-21.97,62.94c-.44,1.27-2.23,1.27-2.68,0l-21.97-62.94c-.4-1.14-1.47-1.9-2.68-1.9h-34.77c-1.57,0-2.83,1.27-2.83,2.83v43.56c0,1.38-1.77,1.95-2.57.82l-32.91-46.03c-.53-.74-1.39-1.19-2.31-1.19h-19.8c-1.57,0-2.83,1.27-2.83,2.83v79.37c0,1.57,1.27,2.83,2.83,2.83h18.7c1.57,0,2.84-1.27,2.83-2.84l-.15-43.77c0-1.38,1.77-1.95,2.57-.82l32.78,46.25c.53.75,1.39,1.2,2.31,1.2h20.07c1.57,0,2.84-1.27,2.83-2.84l-.15-44.41c0-1.6,2.22-1.98,2.75-.48l16.16,45.84c.4,1.13,1.47,1.89,2.67,1.89h35.58c1.2,0,2.27-.76,2.67-1.89l27.97-79.37c.65-1.84-.72-3.78-2.67-3.78Zm-3.2,73.86c-.65-.64-1.4-1.13-2.26-1.48-.86-.35-1.79-.52-2.79-.52s-1.96.18-2.82.54c-.86.36-1.61.86-2.25,1.51-.64.64-1.13,1.39-1.49,2.25-.35.86-.53,1.79-.53,2.79s.17,1.98.52,2.84c.35.86.84,1.61,1.48,2.25.64.64,1.39,1.13,2.25,1.48.86.35,1.81.52,2.84.52s1.98-.17,2.84-.52c.86-.35,1.61-.84,2.25-1.48s1.13-1.39,1.48-2.25c.35-.86.52-1.81.52-2.84s-.18-1.98-.53-2.84c-.35-.86-.86-1.61-1.51-2.25Zm.1,7.39c-.28.71-.67,1.31-1.18,1.82-.51.5-1.1.89-1.77,1.18-.67.28-1.4.42-2.2.42s-1.58-.14-2.26-.42c-.68-.28-1.27-.68-1.78-1.19-.5-.51-.89-1.11-1.16-1.81-.27-.7-.41-1.46-.41-2.3s.14-1.59.42-2.3c.28-.71.67-1.31,1.17-1.82s1.09-.9,1.78-1.19c.68-.29,1.43-.43,2.24-.43s1.54.14,2.22.43c.68.29,1.27.7,1.78,1.22.5.52.89,1.13,1.16,1.82.27.7.41,1.45.41,2.26s-.14,1.59-.42,2.3Zm-2.5-2.57c.28-.35.42-.84.42-1.47,0-.82-.26-1.46-.79-1.9-.53-.44-1.38-.67-2.57-.67h-2.61v8.4h2.01v-3.13h.81l1.6,3.13h2.16l-2.05-3.59c.39-.17.72-.42,1-.77Zm-1.96-.53c-.23.2-.56.3-.99.3h-.58v-2.24h.58c.46,0,.8.08,1.01.24.21.16.32.43.32.82s-.11.68-.34.88Z"/></svg>